<?xml version="1.0" encoding="UTF-8"?>
<svg xmlns="http://www.w3.org/2000/svg" xmlns:xlink="http://www.w3.org/1999/xlink" width="150px" height="36px" viewBox="0 0 152 36" version="1.1">
<g id="surface1">
<path style=" stroke:none;fill-rule:nonzero;fill:rgb(99.607843%,99.607843%,99.607843%);fill-opacity:1;" d="M -22.136719 -101.710938 C 52.75 -101.710938 127.632812 -101.710938 204.789062 -101.710938 C 204.789062 -26.679688 204.789062 48.351562 204.789062 125.660156 C 129.902344 125.660156 55.015625 125.660156 -22.136719 125.660156 C -22.136719 50.628906 -22.136719 -24.40625 -22.136719 -101.710938 Z M -22.136719 -101.710938 "/>
<path style=" stroke:none;fill-rule:nonzero;fill:rgb(1.176471%,48.627451%,100%);fill-opacity:1;" d="M 12.871094 3.238281 C 13.171875 3.238281 13.171875 3.238281 13.480469 3.230469 C 16.9375 3.296875 19.789062 4.691406 22.199219 7.132812 C 22.332031 7.261719 22.464844 7.390625 22.601562 7.523438 C 24.667969 9.671875 25.636719 12.5 25.613281 15.433594 C 25.613281 15.71875 25.613281 15.71875 25.617188 16.011719 C 25.605469 19.351562 24.183594 22.398438 21.882812 24.777344 C 20.097656 26.5 20.097656 26.5 19.046875 26.5 C 18.75 25.714844 18.574219 25.027344 18.625 24.183594 C 19.070312 23.632812 19.574219 23.253906 20.136719 22.816406 C 21.964844 21.1875 22.835938 18.667969 23.097656 16.289062 C 23.210938 13.5625 22.261719 11.125 20.585938 9.007812 C 19.695312 8.046875 18.578125 7.21875 17.363281 6.710938 C 16.917969 6.695312 16.917969 6.695312 16.527344 6.921875 C 16.121094 7.34375 16.121094 7.34375 15.761719 7.855469 C 14.769531 9.214844 14.769531 9.214844 13.96875 9.359375 C 11.796875 9.488281 11.796875 9.488281 10.855469 8.734375 C 9.589844 7.191406 9.589844 7.191406 9.589844 6.5 C 6.617188 7.785156 4.960938 9.511719 3.699219 12.484375 C 3 14.472656 3.046875 16.71875 3.707031 18.710938 C 3.761719 18.878906 3.816406 19.042969 3.871094 19.214844 C 4.476562 20.910156 5.402344 22.269531 6.847656 23.355469 C 7.269531 23.699219 7.460938 23.863281 7.597656 24.398438 C 7.617188 25.183594 7.503906 25.84375 7.070312 26.5 C 5.925781 26.179688 5.183594 25.394531 4.339844 24.605469 C 4.210938 24.5 4.085938 24.394531 3.953125 24.285156 C 2.140625 22.679688 0.964844 19.878906 0.699219 17.484375 C 0.488281 13.46875 1.121094 10.503906 3.707031 7.34375 C 4.867188 6.101562 6.195312 5.171875 7.699219 4.398438 C 7.890625 4.292969 8.074219 4.191406 8.269531 4.085938 C 9.808594 3.359375 11.191406 3.246094 12.871094 3.238281 Z M 12.871094 3.238281 "/>
<path style=" stroke:none;fill-rule:nonzero;fill:rgb(1.568628%,48.627451%,99.607843%);fill-opacity:1;" d="M 14.425781 9.65625 C 14.777344 10.46875 14.96875 11.246094 15.132812 12.117188 C 15.171875 12.324219 15.171875 12.324219 15.210938 12.539062 C 15.269531 12.84375 15.328125 13.148438 15.382812 13.453125 C 15.855469 15.976562 16.351562 18.492188 16.886719 21.003906 C 16.933594 21.230469 16.980469 21.457031 17.03125 21.695312 C 17.226562 22.605469 17.421875 23.519531 17.617188 24.429688 C 17.757812 25.070312 17.890625 25.707031 18.027344 26.347656 C 18.089844 26.636719 18.089844 26.636719 18.15625 26.929688 C 18.523438 28.683594 18.523438 28.683594 18.203125 29.449219 C 17.855469 29.867188 17.519531 30.234375 17.128906 30.609375 C 17.019531 30.714844 16.914062 30.824219 16.804688 30.929688 C 16.460938 31.269531 16.117188 31.601562 15.777344 31.9375 C 15.542969 32.164062 15.3125 32.390625 15.082031 32.621094 C 14.511719 33.179688 13.945312 33.734375 13.375 34.289062 C 12.210938 33.796875 11.371094 32.84375 10.480469 31.976562 C 10.265625 31.765625 10.046875 31.558594 9.824219 31.351562 C 7.996094 29.667969 7.996094 29.667969 7.800781 28.695312 C 7.847656 28.144531 7.960938 27.664062 8.121094 27.132812 C 8.195312 26.773438 8.265625 26.414062 8.332031 26.054688 C 8.417969 25.671875 8.507812 25.289062 8.59375 24.910156 C 8.6875 24.480469 8.785156 24.050781 8.878906 23.617188 C 8.929688 23.398438 8.976562 23.175781 9.027344 22.953125 C 9.257812 21.890625 9.472656 20.828125 9.683594 19.761719 C 9.726562 19.554688 9.765625 19.339844 9.8125 19.121094 C 10.0625 17.835938 10.3125 16.550781 10.5625 15.265625 C 10.589844 15.117188 10.617188 14.96875 10.648438 14.816406 C 10.789062 14.078125 10.929688 13.34375 11.066406 12.609375 C 11.117188 12.34375 11.171875 12.078125 11.222656 11.804688 C 11.289062 11.449219 11.289062 11.449219 11.359375 11.085938 C 11.484375 10.5 11.484375 10.5 11.691406 9.871094 C 12.621094 9.636719 13.472656 9.640625 14.425781 9.65625 Z M 14.425781 9.65625 "/>
<path style=" stroke:none;fill-rule:nonzero;fill:rgb(1.176471%,1.176471%,1.176471%);fill-opacity:1;" d="M 63.261719 9.148438 C 63.460938 9.144531 63.660156 9.136719 63.867188 9.132812 C 64.597656 9.269531 64.808594 9.5 65.273438 10.078125 C 65.386719 10.660156 65.386719 10.660156 65.398438 11.3125 C 65.40625 11.546875 65.414062 11.78125 65.417969 12.023438 C 65.421875 12.269531 65.425781 12.511719 65.429688 12.761719 C 65.433594 13.011719 65.441406 13.257812 65.445312 13.511719 C 65.464844 14.121094 65.476562 14.730469 65.484375 15.34375 C 65.671875 15.207031 65.863281 15.070312 66.0625 14.929688 C 66.882812 14.414062 67.488281 14.332031 68.421875 14.503906 C 70.378906 15.125 71.675781 16.269531 72.625 18.078125 C 73.113281 19.550781 73.089844 21.542969 72.433594 22.964844 C 71.566406 24.390625 70.4375 25.519531 68.84375 26.082031 C 67.511719 26.289062 66.671875 26.074219 65.484375 25.445312 C 65.015625 25.585938 65.015625 25.585938 64.640625 25.867188 C 63.878906 26.125 63.121094 26.246094 62.328125 26.082031 C 61.699219 25.601562 61.507812 25.351562 61.382812 24.554688 C 61.382812 24.289062 61.382812 24.019531 61.382812 23.742188 C 61.382812 23.59375 61.382812 23.441406 61.382812 23.289062 C 61.378906 22.796875 61.382812 22.304688 61.386719 21.816406 C 61.386719 21.472656 61.386719 21.132812 61.382812 20.789062 C 61.382812 20.074219 61.386719 19.359375 61.390625 18.640625 C 61.398438 17.726562 61.398438 16.808594 61.394531 15.886719 C 61.394531 15.183594 61.394531 14.476562 61.398438 13.773438 C 61.398438 13.433594 61.398438 13.097656 61.398438 12.753906 C 61.398438 12.285156 61.398438 11.8125 61.40625 11.335938 C 61.40625 11.070312 61.40625 10.800781 61.40625 10.523438 C 61.488281 9.871094 61.488281 9.871094 61.777344 9.46875 C 62.273438 9.132812 62.667969 9.148438 63.261719 9.148438 Z M 63.261719 9.148438 "/>
<path style=" stroke:none;fill-rule:nonzero;fill:rgb(1.176471%,1.176471%,1.176471%);fill-opacity:1;" d="M 89.40625 14.429688 C 89.984375 14.523438 90.308594 14.691406 90.695312 15.132812 C 90.695312 15.269531 90.695312 15.410156 90.695312 15.554688 C 90.796875 15.476562 90.898438 15.402344 91.003906 15.320312 C 91.859375 14.726562 92.539062 14.332031 93.621094 14.414062 C 95.425781 14.777344 96.59375 15.75 97.695312 17.175781 C 98.535156 18.527344 98.441406 20.128906 98.257812 21.660156 C 97.8125 23.214844 96.863281 24.347656 95.527344 25.238281 C 94.734375 25.632812 94.085938 25.714844 93.203125 25.710938 C 92.988281 25.710938 92.777344 25.710938 92.554688 25.714844 C 91.957031 25.660156 91.636719 25.519531 91.117188 25.238281 C 91.113281 25.449219 91.113281 25.449219 91.113281 25.664062 C 91.105469 26.308594 91.089844 26.949219 91.078125 27.59375 C 91.074219 27.816406 91.074219 28.039062 91.074219 28.265625 C 91.027344 29.910156 91.027344 29.910156 90.429688 30.753906 C 89.847656 31.136719 89.582031 31.269531 88.894531 31.25 C 88.738281 31.25 88.582031 31.25 88.421875 31.25 C 87.773438 31.085938 87.539062 30.816406 87.121094 30.292969 C 87.015625 29.625 87.015625 29.625 87.015625 28.835938 C 87.011719 28.691406 87.011719 28.546875 87.011719 28.398438 C 87.007812 27.921875 87.007812 27.445312 87.011719 26.96875 C 87.011719 26.636719 87.011719 26.304688 87.007812 25.972656 C 87.007812 25.277344 87.011719 24.582031 87.015625 23.886719 C 87.019531 22.996094 87.015625 22.105469 87.011719 21.214844 C 87.007812 20.53125 87.007812 19.847656 87.011719 19.160156 C 87.011719 18.832031 87.011719 18.503906 87.007812 18.175781 C 87.007812 17.714844 87.011719 17.253906 87.015625 16.796875 C 87.015625 16.535156 87.015625 16.273438 87.015625 16.007812 C 87.25 14.566406 88.125 14.375 89.40625 14.429688 Z M 89.40625 14.429688 "/>
<path style=" stroke:none;fill-rule:nonzero;fill:rgb(1.568628%,1.568628%,1.568628%);fill-opacity:1;" d="M 79.71875 9.789062 C 79.96875 9.792969 79.96875 9.792969 80.226562 9.792969 C 81.492188 9.816406 82.484375 10 83.550781 10.710938 C 83.757812 10.84375 83.96875 10.972656 84.183594 11.105469 C 84.601562 11.554688 84.601562 11.554688 84.839844 12.144531 C 84.804688 13.078125 84.386719 13.617188 83.761719 14.289062 C 83.160156 14.59375 82.75 14.566406 82.078125 14.503906 C 81.886719 14.363281 81.691406 14.222656 81.488281 14.082031 C 80.621094 13.535156 79.929688 13.535156 78.929688 13.660156 C 78.789062 13.726562 78.652344 13.796875 78.507812 13.867188 C 78.507812 14.355469 78.507812 14.84375 78.507812 15.34375 C 79.457031 15.867188 80.375 16.140625 81.421875 16.367188 C 83.054688 16.753906 84.230469 17.179688 85.335938 18.488281 C 85.976562 19.792969 85.851562 21.480469 85.515625 22.855469 C 84.957031 24.285156 83.957031 25.203125 82.578125 25.828125 C 80.894531 26.421875 78.964844 26.652344 77.285156 25.933594 C 75.953125 25.246094 74.765625 24.53125 74.097656 23.132812 C 74.058594 22.140625 74.203125 21.777344 74.859375 21.027344 C 75.570312 20.605469 75.570312 20.605469 76.277344 20.554688 C 77.175781 20.863281 77.683594 21.304688 78.363281 21.957031 C 78.996094 22.550781 79.542969 22.570312 80.40625 22.558594 C 80.867188 22.523438 80.867188 22.523438 81.347656 22.144531 C 81.710938 21.578125 81.734375 21.269531 81.660156 20.605469 C 80.582031 20.082031 79.515625 19.675781 78.363281 19.34375 C 76.726562 18.851562 75.730469 18.1875 74.726562 16.816406 C 74.148438 15.589844 74.078125 14.285156 74.4375 12.976562 C 75.007812 11.679688 76.050781 10.703125 77.289062 10.042969 C 78.105469 9.800781 78.871094 9.789062 79.71875 9.789062 Z M 79.71875 9.789062 "/>
<path style=" stroke:none;fill-rule:nonzero;fill:rgb(2.352941%,2.352941%,2.352941%);fill-opacity:1;" d="M 101.726562 9.132812 C 102.023438 9.128906 102.023438 9.128906 102.324219 9.125 C 103.046875 9.269531 103.265625 9.503906 103.722656 10.078125 C 103.835938 10.675781 103.835938 10.675781 103.851562 11.359375 C 103.859375 11.601562 103.863281 11.847656 103.871094 12.101562 C 103.875 12.351562 103.878906 12.609375 103.878906 12.871094 C 103.886719 13.128906 103.890625 13.386719 103.898438 13.648438 C 103.914062 14.285156 103.925781 14.917969 103.933594 15.554688 C 104.082031 15.417969 104.230469 15.277344 104.382812 15.140625 C 105.371094 14.4375 106.335938 14.566406 107.503906 14.710938 C 109.144531 15.15625 110.167969 16.417969 111.007812 17.828125 C 111.476562 18.980469 111.371094 20.253906 111.359375 21.472656 C 111.351562 21.910156 111.351562 22.34375 111.355469 22.78125 C 111.34375 25.160156 111.34375 25.160156 110.867188 25.867188 C 110.355469 26.125 109.992188 26.128906 109.421875 26.144531 C 109.152344 26.15625 109.152344 26.15625 108.871094 26.167969 C 108.160156 26.050781 107.953125 25.800781 107.503906 25.238281 C 107.402344 24.636719 107.402344 24.636719 107.40625 23.941406 C 107.402344 23.691406 107.402344 23.441406 107.398438 23.183594 C 107.398438 22.660156 107.402344 22.132812 107.402344 21.605469 C 107.398438 21.355469 107.398438 21.105469 107.394531 20.847656 C 107.394531 20.621094 107.394531 20.394531 107.394531 20.160156 C 107.269531 19.414062 107.039062 19.171875 106.457031 18.710938 C 106.039062 18.589844 106.039062 18.589844 105.613281 18.617188 C 105.472656 18.621094 105.335938 18.621094 105.191406 18.621094 C 104.621094 18.746094 104.355469 18.933594 103.933594 19.34375 C 103.8125 19.9375 103.8125 19.9375 103.835938 20.609375 C 103.832031 20.988281 103.832031 20.988281 103.824219 21.367188 C 103.828125 21.894531 103.828125 22.417969 103.832031 22.945312 C 103.828125 23.320312 103.828125 23.320312 103.820312 23.703125 C 103.824219 23.933594 103.824219 24.160156 103.824219 24.394531 C 103.699219 25.175781 103.433594 25.523438 102.882812 26.082031 C 102.324219 26.21875 102.324219 26.21875 101.726562 26.210938 C 101.429688 26.214844 101.429688 26.214844 101.128906 26.21875 C 100.351562 26.027344 100.160156 25.695312 99.730469 25.027344 C 99.625 24.339844 99.625 24.339844 99.621094 23.550781 C 99.621094 23.402344 99.621094 23.261719 99.617188 23.109375 C 99.613281 22.632812 99.617188 22.160156 99.621094 21.683594 C 99.621094 21.351562 99.617188 21.023438 99.617188 20.691406 C 99.617188 19.996094 99.617188 19.300781 99.621094 18.609375 C 99.625 17.71875 99.625 16.832031 99.621094 15.941406 C 99.617188 15.257812 99.617188 14.574219 99.621094 13.886719 C 99.621094 13.558594 99.617188 13.234375 99.617188 12.90625 C 99.613281 12.445312 99.617188 11.988281 99.621094 11.53125 C 99.625 11.269531 99.625 11.011719 99.625 10.742188 C 99.824219 9.488281 100.523438 9.117188 101.726562 9.132812 Z M 101.726562 9.132812 "/>
<path style=" stroke:none;fill-rule:nonzero;fill:rgb(1.568628%,1.568628%,1.568628%);fill-opacity:1;" d="M 57.285156 15.132812 C 58.636719 16.027344 59.554688 17.144531 60.019531 18.710938 C 60.339844 20.800781 59.949219 22.445312 58.757812 24.183594 C 57.667969 25.53125 56.066406 26.128906 54.386719 26.378906 C 52.574219 26.472656 51.371094 25.75 49.882812 24.804688 C 48.785156 23.792969 48.152344 22.367188 47.925781 20.910156 C 47.855469 19.03125 48.214844 17.601562 49.472656 16.179688 C 51.707031 14.058594 54.558594 13.578125 57.285156 15.132812 Z M 57.285156 15.132812 "/>
<path style=" stroke:none;fill-rule:nonzero;fill:rgb(1.960784%,1.960784%,1.960784%);fill-opacity:1;" d="M 144.484375 14.921875 C 145.550781 15.566406 146.167969 16.5 146.585938 17.660156 C 146.757812 18.820312 146.796875 19.804688 146.21875 20.84375 C 145.355469 21.566406 144.757812 21.710938 143.628906 21.699219 C 143.265625 21.699219 143.265625 21.699219 142.890625 21.695312 C 142.632812 21.691406 142.382812 21.6875 142.121094 21.683594 C 141.734375 21.683594 141.734375 21.683594 141.34375 21.679688 C 140.710938 21.675781 140.074219 21.667969 139.441406 21.660156 C 139.585938 22.292969 139.585938 22.292969 139.992188 22.539062 C 140.671875 22.773438 141.273438 22.757812 141.988281 22.75 C 142.382812 22.75 142.382812 22.75 142.777344 22.746094 C 143.414062 22.757812 143.414062 22.757812 143.855469 22.5 C 144.460938 22.421875 144.460938 22.421875 145.117188 22.5 C 145.648438 22.949219 145.902344 23.289062 146.035156 23.976562 C 146.074219 24.648438 146.066406 25.105469 145.628906 25.632812 C 143.578125 26.582031 140.917969 26.679688 138.746094 26.105469 C 137.226562 25.398438 136.285156 24.300781 135.582031 22.804688 C 134.972656 21.105469 134.914062 19.226562 135.660156 17.566406 C 136.503906 16.121094 137.761719 15.054688 139.3125 14.429688 C 141.0625 13.988281 142.878906 14.105469 144.484375 14.921875 Z M 144.484375 14.921875 "/>
<path style=" stroke:none;fill-rule:nonzero;fill:rgb(1.960784%,1.960784%,1.960784%);fill-opacity:1;" d="M 122.003906 14.921875 C 123.070312 15.566406 123.6875 16.5 124.105469 17.660156 C 124.277344 18.820312 124.316406 19.804688 123.738281 20.84375 C 122.871094 21.566406 122.273438 21.710938 121.144531 21.699219 C 120.78125 21.699219 120.78125 21.699219 120.410156 21.695312 C 120.152344 21.691406 119.898438 21.6875 119.636719 21.683594 C 119.253906 21.683594 119.253906 21.683594 118.859375 21.679688 C 118.226562 21.675781 117.59375 21.667969 116.960938 21.660156 C 117.101562 22.292969 117.101562 22.292969 117.511719 22.539062 C 118.191406 22.773438 118.789062 22.757812 119.507812 22.75 C 119.898438 22.75 119.898438 22.75 120.296875 22.746094 C 120.933594 22.757812 120.933594 22.757812 121.371094 22.5 C 121.976562 22.421875 121.976562 22.421875 122.632812 22.5 C 123.164062 22.949219 123.421875 23.289062 123.554688 23.976562 C 123.589844 24.648438 123.582031 25.105469 123.144531 25.632812 C 121.097656 26.582031 118.433594 26.679688 116.265625 26.105469 C 114.746094 25.398438 113.804688 24.300781 113.097656 22.804688 C 112.488281 21.105469 112.433594 19.226562 113.175781 17.566406 C 114.019531 16.121094 115.277344 15.054688 116.832031 14.429688 C 118.578125 13.988281 120.398438 14.105469 122.003906 14.921875 Z M 122.003906 14.921875 "/>
<path style=" stroke:none;fill-rule:nonzero;fill:rgb(1.176471%,1.176471%,1.176471%);fill-opacity:1;" d="M 44.683594 9.988281 C 44.859375 9.980469 45.035156 9.976562 45.21875 9.972656 C 45.953125 10.125 46.132812 10.304688 46.570312 10.921875 C 46.699219 11.710938 46.6875 12.488281 46.683594 13.285156 C 46.683594 13.519531 46.683594 13.75 46.683594 13.992188 C 46.683594 14.480469 46.683594 14.976562 46.679688 15.46875 C 46.675781 16.21875 46.679688 16.964844 46.6875 17.714844 C 46.683594 18.195312 46.683594 18.675781 46.683594 19.15625 C 46.683594 19.378906 46.6875 19.601562 46.6875 19.832031 C 46.664062 21.878906 46.054688 23.371094 44.664062 24.871094 C 43.308594 26.089844 41.730469 26.390625 39.953125 26.378906 C 38.5 26.207031 37.238281 25.460938 36.238281 24.394531 C 35.792969 23.660156 35.679688 23.34375 35.855469 22.5 C 36.363281 21.679688 36.699219 21.3125 37.617188 20.988281 C 38.40625 21.03125 38.511719 21.074219 39.085938 21.542969 C 39.816406 22.128906 40.375 22.207031 41.292969 22.242188 C 41.851562 22.039062 42.085938 21.730469 42.402344 21.238281 C 42.769531 20.367188 42.6875 19.433594 42.679688 18.503906 C 42.679688 18.285156 42.679688 18.0625 42.683594 17.835938 C 42.6875 17.132812 42.6875 16.425781 42.683594 15.722656 C 42.683594 14.796875 42.683594 13.867188 42.691406 12.941406 C 42.6875 12.726562 42.6875 12.511719 42.683594 12.292969 C 42.683594 12.09375 42.6875 11.894531 42.6875 11.691406 C 42.6875 11.515625 42.6875 11.339844 42.6875 11.164062 C 42.789062 10.710938 42.789062 10.710938 43.183594 10.339844 C 43.71875 10.027344 44.0625 9.988281 44.683594 9.988281 Z M 44.683594 9.988281 "/>
<path style=" stroke:none;fill-rule:nonzero;fill:rgb(1.176471%,43.137255%,88.627452%);fill-opacity:1;" d="M 13.160156 9.871094 C 13.648438 9.871094 14.132812 9.871094 14.632812 9.871094 C 14.660156 10.003906 14.683594 10.132812 14.714844 10.269531 C 15.046875 11.941406 15.378906 13.617188 15.710938 15.289062 C 15.761719 15.554688 15.816406 15.820312 15.867188 16.09375 C 16.507812 19.292969 17.144531 22.488281 17.855469 25.667969 C 17.941406 26.054688 18.023438 26.441406 18.097656 26.828125 C 18.195312 27.339844 18.195312 27.339844 18.367188 27.816406 C 18.515625 28.371094 18.546875 28.675781 18.417969 29.238281 C 17.730469 30.195312 16.898438 30.976562 16.039062 31.777344 C 15.808594 32 15.578125 32.226562 15.347656 32.449219 C 13.667969 34.078125 13.667969 34.078125 13.160156 34.078125 C 13.160156 26.089844 13.160156 18.101562 13.160156 9.871094 Z M 13.160156 9.871094 "/>
<path style=" stroke:none;fill-rule:nonzero;fill:rgb(1.176471%,1.176471%,1.176471%);fill-opacity:1;" d="M 128.515625 14.503906 C 129.171875 14.921875 129.171875 14.921875 129.566406 15.34375 C 129.730469 15.203125 129.898438 15.066406 130.066406 14.921875 C 130.964844 14.320312 131.886719 14.382812 132.929688 14.503906 C 133.765625 14.726562 133.910156 14.816406 134.398438 15.554688 C 134.351562 16.597656 134.285156 17.488281 133.558594 18.289062 C 132.578125 18.546875 131.621094 18.507812 130.621094 18.449219 C 130.1875 18.46875 130.1875 18.46875 129.859375 18.734375 C 129.429688 19.320312 129.488281 19.78125 129.488281 20.5 C 129.484375 20.769531 129.480469 21.039062 129.476562 21.316406 C 129.476562 21.746094 129.476562 22.171875 129.476562 22.597656 C 129.472656 23.015625 129.46875 23.425781 129.460938 23.84375 C 129.460938 24.089844 129.460938 24.339844 129.460938 24.589844 C 129.335938 25.363281 129.128906 25.609375 128.515625 26.082031 C 128.003906 26.191406 128.003906 26.191406 127.464844 26.183594 C 127.199219 26.1875 127.199219 26.1875 126.929688 26.191406 C 126.203125 26.035156 126.007812 25.847656 125.574219 25.238281 C 125.449219 24.5 125.457031 23.769531 125.464844 23.019531 C 125.464844 22.804688 125.460938 22.585938 125.460938 22.367188 C 125.460938 21.90625 125.460938 21.449219 125.464844 20.992188 C 125.46875 20.292969 125.464844 19.59375 125.460938 18.894531 C 125.460938 18.449219 125.460938 18.003906 125.464844 17.558594 C 125.460938 17.351562 125.460938 17.140625 125.460938 16.925781 C 125.476562 15.480469 125.476562 15.480469 125.96875 14.792969 C 126.773438 14.269531 127.597656 14.347656 128.515625 14.503906 Z M 128.515625 14.503906 "/>
<path style=" stroke:none;fill-rule:nonzero;fill:rgb(96.078432%,96.078432%,96.078432%);fill-opacity:1;" d="M 54.554688 18.078125 C 55.324219 18.507812 55.746094 18.816406 56.234375 19.554688 C 56.34375 20.53125 56.195312 21.082031 55.605469 21.871094 C 54.753906 22.4375 54.082031 22.425781 53.085938 22.289062 C 52.457031 21.988281 52.457031 21.988281 52.035156 21.449219 C 51.816406 20.800781 51.738281 20.234375 51.824219 19.554688 C 52.457031 18.355469 53.238281 17.953125 54.554688 18.078125 Z M 54.554688 18.078125 "/>
<path style=" stroke:none;fill-rule:nonzero;fill:rgb(96.470588%,96.470588%,96.470588%);fill-opacity:1;" d="M 67.597656 18.398438 C 68.332031 18.582031 68.636719 18.9375 69.054688 19.554688 C 69.183594 20.289062 69.183594 20.289062 69.054688 21.027344 C 68.542969 21.632812 68.542969 21.632812 68.003906 22.082031 C 67.933594 22.148438 67.867188 22.21875 67.792969 22.289062 C 67.214844 22.371094 67.214844 22.371094 66.53125 22.289062 C 65.785156 21.65625 65.324219 21.207031 65.195312 20.222656 C 65.273438 19.554688 65.273438 19.554688 65.691406 18.949219 C 66.394531 18.449219 66.753906 18.339844 67.597656 18.398438 Z M 67.597656 18.398438 "/>
<path style=" stroke:none;fill-rule:nonzero;fill:rgb(95.686275%,95.686275%,95.686275%);fill-opacity:1;" d="M 93.425781 18.289062 C 93.996094 18.667969 94.382812 18.9375 94.6875 19.554688 C 94.773438 20.320312 94.738281 20.726562 94.371094 21.410156 C 93.761719 21.945312 93.378906 22.066406 92.578125 22.125 C 91.910156 22.050781 91.566406 21.714844 91.117188 21.238281 C 90.816406 20.636719 90.839844 20.21875 90.90625 19.554688 C 91.632812 18.460938 92.113281 18.164062 93.425781 18.289062 Z M 93.425781 18.289062 "/>
<path style=" stroke:none;fill-rule:nonzero;fill:rgb(96.862745%,96.862745%,96.862745%);fill-opacity:1;" d="M 142.386719 17.871094 C 142.804688 18.289062 142.804688 18.289062 142.84375 18.828125 C 142.804688 19.34375 142.804688 19.34375 142.59375 19.554688 C 142.027344 19.570312 141.46875 19.574219 140.902344 19.566406 C 140.660156 19.566406 140.660156 19.566406 140.417969 19.566406 C 140.023438 19.5625 139.625 19.558594 139.230469 19.554688 C 139.84375 17.9375 140.699219 17.617188 142.386719 17.871094 Z M 142.386719 17.871094 "/>
<path style=" stroke:none;fill-rule:nonzero;fill:rgb(96.862745%,96.862745%,96.862745%);fill-opacity:1;" d="M 119.902344 17.871094 C 120.320312 18.289062 120.320312 18.289062 120.359375 18.828125 C 120.320312 19.34375 120.320312 19.34375 120.113281 19.554688 C 119.546875 19.570312 118.984375 19.574219 118.417969 19.566406 C 118.179688 19.566406 118.179688 19.566406 117.933594 19.566406 C 117.539062 19.5625 117.144531 19.558594 116.75 19.554688 C 117.359375 17.9375 118.214844 17.617188 119.902344 17.871094 Z M 119.902344 17.871094 "/>
</g>
</svg>
